<?xml version="1.0" encoding="UTF-8"?>
<svg width="54px" height="53px" viewBox="0 0 54 53" version="1.1" xmlns="http://www.w3.org/2000/svg" xmlns:xlink="http://www.w3.org/1999/xlink">
    <!-- Generator: Sketch 50.2 (55047) - http://www.bohemiancoding.com/sketch -->
    <title>flashlight</title>
    <desc>Created with Sketch.</desc>
    <defs></defs>
    <g id="flashlight" stroke="none" stroke-width="1" fill="none" fill-rule="evenodd">
        <g id="Group-3" transform="translate(27.000000, 26.500000) rotate(-46.000000) translate(-27.000000, -26.500000) translate(13.000000, 3.000000)">
            <polygon id="Rectangle-2" fill="#000000" transform="translate(13.457706, 35.847828) rotate(-270.000000) translate(-13.457706, -35.847828) " points="3 33.5095593 23.8245406 31 23.9154118 40.695655 3.11539878 39.0592817"></polygon>
            <path d="M0,5 L7,10" id="Line-2" stroke="#E5C54E" stroke-width="2" stroke-linecap="square"></path>
            <path d="M19.144155,5 L26.2883099,10" id="Line-2-Copy-2" stroke="#E5C54E" stroke-width="2" stroke-linecap="square" transform="translate(23.144155, 7.500000) scale(-1, 1) translate(-23.144155, -7.500000) "></path>
            <path d="M13,0 L13,7" id="Line-2-Copy" stroke="#E5C54E" stroke-width="2" stroke-linecap="square"></path>
            <path d="M7,13.7143473 C7,12.8374217 10.3123951,11 13.099017,11 C15.8856389,11 19,12.8024124 19,13.7143473 C19,16.3145048 17.9273556,19.4282589 15.7820667,23.0556096 L10.6605131,23.0556096 C8.22017102,19.4125462 7,16.2987921 7,13.7143473 Z" id="Rectangle-8" fill="#000000" transform="translate(13.000000, 17.027805) rotate(-360.000000) translate(-13.000000, -17.027805) "></path>
        </g>
    </g>
</svg>