<?xml version="1.0" encoding="UTF-8"?>
<svg width="913px" height="590px" viewBox="0 0 913 590" version="1.1" xmlns="http://www.w3.org/2000/svg" xmlns:xlink="http://www.w3.org/1999/xlink">
    <!-- Generator: Sketch 50.2 (55047) - http://www.bohemiancoding.com/sketch -->
    <title>Group 2</title>
    <desc>Created with Sketch.</desc>
    <defs></defs>
    <g id="Page-1" stroke="none" stroke-width="1" fill="none" fill-rule="evenodd">
        <g id="Desktop" transform="translate(-79.000000, -98.000000)">
            <g id="Group-2" transform="translate(79.000000, 98.000000)">
                <path d="M489,589 L489,504.637666 C480.628918,486.212555 461.962251,477 433,477 C404.037749,477 385.371082,486.212555 377,504.637666 L377,589 L148,589 L148,239 L718,239 L718,589 L489,589 Z" id="Combined-Shape" fill="#000000"></path>
                <path d="M717,476 C746,482.408854 775,485.613281 804,485.613281 C833,485.613281 862,482.408854 891,476 L891,522 L717,522 L717,476 Z M750,496.152516 L750,521 L758,521 L758,496.152516 C758,493.384172 756.666667,492 754,492 C751.333333,492 750,493.384172 750,496.152516 Z M730,496.152516 L730,521 L738,521 L738,496.152516 C738,493.384172 736.666667,492 734,492 C731.333333,492 730,493.384172 730,496.152516 Z M770,496.152516 L770,521 L778,521 L778,496.152516 C778,493.384172 776.666667,492 774,492 C771.333333,492 770,493.384172 770,496.152516 Z M790,496.152516 L790,521 L798,521 L798,496.152516 C798,493.384172 796.666667,492 794,492 C791.333333,492 790,493.384172 790,496.152516 Z M810,496.152516 L810,521 L818,521 L818,496.152516 C818,493.384172 816.666667,492 814,492 C811.333333,492 810,493.384172 810,496.152516 Z M830,496.152516 L830,521 L838,521 L838,496.152516 C838,493.384172 836.666667,492 834,492 C831.333333,492 830,493.384172 830,496.152516 Z M850,496.152516 L850,521 L858,521 L858,496.152516 C858,493.384172 856.666667,492 854,492 C851.333333,492 850,493.384172 850,496.152516 Z M870,496.152516 L870,521 L878,521 L878,496.152516 C878,493.384172 876.666667,492 874,492 C871.333333,492 870,493.384172 870,496.152516 Z" id="Combined-Shape" fill="#000000"></path>
                <polygon id="Rectangle-3" fill="#000000" points="51 446 149 446 149 589 51 589"></polygon>
                <polygon id="Rectangle-3-Copy-2" fill="#000000" points="887 427 897 427 897 523 887 523"></polygon>
                <polygon id="Rectangle-3-Copy" fill="#000000" points="286 85 384 85 384 257 286 257"></polygon>
                <polygon id="Rectangle-4" fill="#000000" points="717 521 911 521 911 589 717 589"></polygon>
                <path d="M156,389.422695 L312,447 L0,447 C4.97327567,443.072869 9.73809424,440.8164 14.2944557,440.230593 C45.7780616,436.182777 76.9126983,430.935281 98.3256488,424.758468 C123.705455,417.43737 142.930239,405.658779 156,389.422695 Z" id="Triangle" fill="#000000"></path>
                <path d="M702.460938,305.949219 C714.5625,324.233073 737.692708,344.908203 771.851562,367.974609 C803.350067,389.244565 846.164062,410.75 904.824219,420.875 C908.423246,421.496208 911.148506,424.537875 913,430 L524,430 L702.460938,305.949219 Z" id="Triangle-Copy-4" fill="#000000"></path>
                <path d="M335,157 C359.445522,183.692692 386.133962,203.810075 415.065319,217.35215 C443.996677,230.894225 503.974904,244.110175 595,257 L74.995291,257 C80.8980016,250.660813 92.3514742,245.971822 109.355709,242.933026 C134.86206,238.374833 172.254486,231.194254 222.959272,212.056411 C256.762463,199.297849 294.109372,180.945712 335,157 Z" id="Triangle-Copy" fill="#000000"></path>
                <path d="M505.5,171.085775 C517.919298,171.615919 535.456226,169.920661 558.110785,166 C568.527766,179.250837 583.915285,194.405489 604.273344,211.463956 C624.631403,228.522423 650.206955,243.677074 681,256.927911 L330,256.927911 C364.178342,242.960017 392.511676,227.805365 415,211.463956 C437.488324,195.122546 452.289418,179.967894 459.403282,166 C477.715129,168.860373 493.080702,170.555631 505.5,171.085775 Z" id="Triangle-Copy-2" fill="#000000"></path>
                <path d="M635.5,57 C649.352823,100.04587 668.694125,141.428929 693.523907,181.149176 C714.491671,214.691347 746.467455,234.939627 775.03546,247.891883 C778.543388,249.482319 781.531568,252.518358 784,257 L487,257 C534.985526,227.081833 569.400557,196.215182 590.245094,164.400046 C611.089631,132.58491 626.1746,96.7848949 635.5,57 Z" id="Triangle-Copy-3" fill="#000000"></path>
                <path d="M335.5,6.01699125 C349.697549,6.01699125 361.728086,4.06314637 371.59161,0.155456615 C371.718517,16.7115819 375.510756,32.2066206 382.968327,46.6405725 C390.425899,61.0745244 404.436456,74.1943336 425,86 L246,86 C260.861097,78.036807 273.380279,64.9169979 283.557546,46.6405725 C293.734813,28.3641471 299.328432,12.8691085 300.338403,0.155456615 C309.581918,4.06314637 321.302451,6.01699125 335.5,6.01699125 Z" id="Triangle-Copy-5" fill="#000000"></path>
                <path d="M377,504.637666 C385.371082,486.212555 404.037749,477 433,477 C461.962251,477 480.628918,486.212555 489,504.637666 L489,589.322224 L377,589.322224 L377,504.637666 Z" id="Rectangle-6-Copy" fill="#E5C54E"></path>
                <path d="M377.5,504.746215 L377.5,588.822224 L488.5,588.822224 L488.5,504.746215 C480.198944,486.588586 461.731781,477.5 433,477.5 C404.268219,477.5 385.801056,486.588586 377.5,504.746231 Z M377.5,504.746231 C377.48504,504.778953 377.470114,504.811705 377.45522,504.844487 L377.5,504.637666 L377.5,504.746215 Z" id="Rectangle-6-Copy-2" stroke="#E5C54E" fill="#000000"></path>
                <polygon id="Rectangle-7" fill="#E5C54E" points="156 451 210 451 210 501 156 501"></polygon>
                <polygon id="Rectangle-7-Copy" fill="#E5C54E" points="189 289 232 289 232 352 189 352"></polygon>
                <polygon id="Rectangle-7-Copy-2" fill="#E5C54E" points="251 289 294 289 294 352 251 352"></polygon>
                <polygon id="Rectangle-7-Copy-3" fill="#E5C54E" points="330 380 373 380 373 430 330 430"></polygon>
                <polygon id="Rectangle-7-Copy-4" fill="#E5C54E" points="481 257 524 257 524 297 481 297"></polygon>
                <path d="M614,201 C618.237651,190.75935 625.404318,185.639026 635.5,185.639026 C645.595682,185.639026 652.762349,190.75935 657,201 L657,251 L614,251 L614,201 Z" id="Rectangle-7-Copy-10" fill="#E5C54E"></path>
                <polygon id="Rectangle-7-Copy-11" fill="#E5C54E" points="314 94 357 94 357 157 314 157"></polygon>
                <polygon id="Rectangle-7-Copy-5" fill="#E5C54E" points="519 366 540 366 540 412 519 412"></polygon>
                <polygon id="Rectangle-7-Copy-6" fill="#E5C54E" points="620 366 641 366 641 412 620 412"></polygon>
                <polygon id="Rectangle-7-Copy-7" fill="#E5C54E" points="553 366 607 366 607 412 553 412"></polygon>
                <polygon id="Rectangle-7-Copy-8" fill="#E5C54E" points="548 481 588 481 588 539 548 539"></polygon>
                <polygon id="Rectangle-7-Copy-9" fill="#E5C54E" points="607 481 647 481 647 539 607 539"></polygon>
                <path d="M274.5,289.5 L274.5,350.5" id="Line" stroke="#000000" stroke-width="3" stroke-linecap="square"></path>
                <path d="M247.5,322.5 L293.5,322.5" id="Line-Copy" stroke="#000000" stroke-width="3" stroke-linecap="square"></path>
                <g id="Group" transform="translate(184.000000, 289.000000)" stroke="#000000" stroke-linecap="square" stroke-width="3">
                    <path d="M25.5,0.5 L25.5,61.5" id="Line-Copy-2"></path>
                    <path d="M0.5,33.5 L46.5,33.5" id="Line-Copy-3"></path>
                </g>
                <g id="Group-Copy" transform="translate(151.000000, 446.000000)" stroke="#000000" stroke-linecap="square" stroke-width="3">
                    <path d="M32.5,0.5 L32.5,61.5" id="Line-Copy-2"></path>
                    <path d="M0.5,33.5 L62.5,33.5" id="Line-Copy-3"></path>
                </g>
                <g id="Group-Copy-2" transform="translate(319.000000, 373.000000)" stroke="#000000" stroke-linecap="square" stroke-width="3">
                    <path d="M32.5,0.5 L32.5,61.5" id="Line-Copy-2"></path>
                    <path d="M0.5,33.5 L62.5,33.5" id="Line-Copy-3"></path>
                </g>
                <g id="Group-Copy-3" transform="translate(471.000000, 245.000000)" stroke="#000000" stroke-linecap="square" stroke-width="3">
                    <path d="M32.5,0.5 L32.5,61.5" id="Line-Copy-2"></path>
                    <path d="M0.5,33.5 L62.5,33.5" id="Line-Copy-3"></path>
                </g>
                <g id="Group-Copy-4" transform="translate(547.000000, 357.000000)" stroke="#000000" stroke-linecap="square" stroke-width="3">
                    <path d="M32.5,0.5 L32.5,61.5" id="Line-Copy-2"></path>
                    <path d="M0.5,33.5 L62.5,33.5" id="Line-Copy-3"></path>
                </g>
                <g id="Group-Copy-5" transform="translate(535.000000, 479.000000)" stroke="#000000" stroke-linecap="square" stroke-width="3">
                    <path d="M32.5,0.5 L32.5,61.5" id="Line-Copy-2"></path>
                    <path d="M0.5,33.5 L62.5,33.5" id="Line-Copy-3"></path>
                </g>
                <g id="Group-Copy-6" transform="translate(595.000000, 479.000000)" stroke="#000000" stroke-linecap="square" stroke-width="3">
                    <path d="M32.5,0.5 L32.5,61.5" id="Line-Copy-2"></path>
                    <path d="M0.5,33.5 L62.5,33.5" id="Line-Copy-3"></path>
                </g>
                <g id="Group-Copy-7" transform="translate(303.000000, 94.000000)" stroke="#000000" stroke-linecap="square" stroke-width="3">
                    <path d="M32.5,0.5 L32.5,61.5" id="Line-Copy-2"></path>
                    <path d="M0.5,33.5 L62.5,33.5" id="Line-Copy-3"></path>
                </g>
            </g>
        </g>
    </g>
</svg>