<?xml version="1.0" encoding="UTF-8"?>
<svg width="1024px" height="1024px" viewBox="0 0 1024 1024" version="1.1" xmlns="http://www.w3.org/2000/svg" xmlns:xlink="http://www.w3.org/1999/xlink">
    <!-- Generator: Sketch 50.2 (55047) - http://www.bohemiancoding.com/sketch -->
    <title>Desktop</title>
    <desc>Created with Sketch.</desc>
    <defs>
        <circle id="path-1" cx="11.5" cy="11.5" r="11.5"></circle>
        <filter x="-143.5%" y="-173.9%" width="465.2%" height="465.2%" filterUnits="objectBoundingBox" id="filter-2">
            <feOffset dx="9" dy="2" in="SourceAlpha" result="shadowOffsetOuter1"></feOffset>
            <feGaussianBlur stdDeviation="12.5" in="shadowOffsetOuter1" result="shadowBlurOuter1"></feGaussianBlur>
            <feComposite in="shadowBlurOuter1" in2="SourceAlpha" operator="out" result="shadowBlurOuter1"></feComposite>
            <feColorMatrix values="0 0 0 0 0   0 0 0 0 0   0 0 0 0 0  0 0 0 0.5 0" type="matrix" in="shadowBlurOuter1"></feColorMatrix>
        </filter>
        <path d="M23,44.5 C23,32.6258779 17.8512746,23 11.5,23 C5.14872538,23 0,32.6258779 0,44.5 C0,56.3741221 23,56.3741221 23,44.5 Z" id="path-3"></path>
        <filter x="-143.5%" y="-131.6%" width="465.2%" height="376.3%" filterUnits="objectBoundingBox" id="filter-4">
            <feOffset dx="9" dy="2" in="SourceAlpha" result="shadowOffsetOuter1"></feOffset>
            <feGaussianBlur stdDeviation="12.5" in="shadowOffsetOuter1" result="shadowBlurOuter1"></feGaussianBlur>
            <feComposite in="shadowBlurOuter1" in2="SourceAlpha" operator="out" result="shadowBlurOuter1"></feComposite>
            <feColorMatrix values="0 0 0 0 0   0 0 0 0 0   0 0 0 0 0  0 0 0 0.5 0" type="matrix" in="shadowBlurOuter1"></feColorMatrix>
        </filter>
    </defs>
    <g id="Desktop" stroke="none" stroke-width="1" fill="none" fill-rule="evenodd">
        <g id="Group-2" transform="translate(79.000000, 98.000000)">
            <path d="M489,589 L489,504.637666 C480.628918,486.212555 461.962251,477 433,477 C404.037749,477 385.371082,486.212555 377,504.637666 L377,589 L148,589 L148,239 L718,239 L718,589 L489,589 Z" id="Combined-Shape" fill="#000000"></path>
            <path d="M717,476 C746,482.408854 775,485.613281 804,485.613281 C833,485.613281 862,482.408854 891,476 L891,522 L717,522 L717,476 Z M750,496.152516 L750,521 L758,521 L758,496.152516 C758,493.384172 756.666667,492 754,492 C751.333333,492 750,493.384172 750,496.152516 Z M730,496.152516 L730,521 L738,521 L738,496.152516 C738,493.384172 736.666667,492 734,492 C731.333333,492 730,493.384172 730,496.152516 Z M770,496.152516 L770,521 L778,521 L778,496.152516 C778,493.384172 776.666667,492 774,492 C771.333333,492 770,493.384172 770,496.152516 Z M790,496.152516 L790,521 L798,521 L798,496.152516 C798,493.384172 796.666667,492 794,492 C791.333333,492 790,493.384172 790,496.152516 Z M810,496.152516 L810,521 L818,521 L818,496.152516 C818,493.384172 816.666667,492 814,492 C811.333333,492 810,493.384172 810,496.152516 Z M830,496.152516 L830,521 L838,521 L838,496.152516 C838,493.384172 836.666667,492 834,492 C831.333333,492 830,493.384172 830,496.152516 Z M850,496.152516 L850,521 L858,521 L858,496.152516 C858,493.384172 856.666667,492 854,492 C851.333333,492 850,493.384172 850,496.152516 Z M870,496.152516 L870,521 L878,521 L878,496.152516 C878,493.384172 876.666667,492 874,492 C871.333333,492 870,493.384172 870,496.152516 Z" id="Combined-Shape" fill="#000000"></path>
            <polygon id="Rectangle-3" fill="#000000" points="51 446 149 446 149 589 51 589"></polygon>
            <polygon id="Rectangle-3-Copy-2" fill="#000000" points="887 427 897 427 897 523 887 523"></polygon>
            <polygon id="Rectangle-3-Copy" fill="#000000" points="286 85 384 85 384 257 286 257"></polygon>
            <polygon id="Rectangle-4" fill="#000000" points="717 521 911 521 911 589 717 589"></polygon>
            <path d="M156,389.422695 L312,447 L0,447 C4.97327567,443.072869 9.73809424,440.8164 14.2944557,440.230593 C45.7780616,436.182777 76.9126983,430.935281 98.3256488,424.758468 C123.705455,417.43737 142.930239,405.658779 156,389.422695 Z" id="Triangle" fill="#000000"></path>
            <path d="M702.460938,305.949219 C714.5625,324.233073 737.692708,344.908203 771.851562,367.974609 C803.350067,389.244565 846.164062,410.75 904.824219,420.875 C908.423246,421.496208 911.148506,424.537875 913,430 L524,430 L702.460938,305.949219 Z" id="Triangle-Copy-4" fill="#000000"></path>
            <path d="M335,157 C359.445522,183.692692 386.133962,203.810075 415.065319,217.35215 C443.996677,230.894225 503.974904,244.110175 595,257 L74.995291,257 C80.8980016,250.660813 92.3514742,245.971822 109.355709,242.933026 C134.86206,238.374833 172.254486,231.194254 222.959272,212.056411 C256.762463,199.297849 294.109372,180.945712 335,157 Z" id="Triangle-Copy" fill="#000000"></path>
            <path d="M505.5,171.085775 C517.919298,171.615919 535.456226,169.920661 558.110785,166 C568.527766,179.250837 583.915285,194.405489 604.273344,211.463956 C624.631403,228.522423 650.206955,243.677074 681,256.927911 L330,256.927911 C364.178342,242.960017 392.511676,227.805365 415,211.463956 C437.488324,195.122546 452.289418,179.967894 459.403282,166 C477.715129,168.860373 493.080702,170.555631 505.5,171.085775 Z" id="Triangle-Copy-2" fill="#000000"></path>
            <path d="M635.5,57 C649.352823,100.04587 668.694125,141.428929 693.523907,181.149176 C714.491671,214.691347 746.467455,234.939627 775.03546,247.891883 C778.543388,249.482319 781.531568,252.518358 784,257 L487,257 C534.985526,227.081833 569.400557,196.215182 590.245094,164.400046 C611.089631,132.58491 626.1746,96.7848949 635.5,57 Z" id="Triangle-Copy-3" fill="#000000"></path>
            <path d="M335.5,6.01699125 C349.697549,6.01699125 361.728086,4.06314637 371.59161,0.155456615 C371.718517,16.7115819 375.510756,32.2066206 382.968327,46.6405725 C390.425899,61.0745244 404.436456,74.1943336 425,86 L246,86 C260.861097,78.036807 273.380279,64.9169979 283.557546,46.6405725 C293.734813,28.3641471 299.328432,12.8691085 300.338403,0.155456615 C309.581918,4.06314637 321.302451,6.01699125 335.5,6.01699125 Z" id="Triangle-Copy-5" fill="#000000"></path>
            <path d="M377,504.637666 C385.371082,486.212555 404.037749,477 433,477 C461.962251,477 480.628918,486.212555 489,504.637666 L489,589.322224 L377,589.322224 L377,504.637666 Z" id="Rectangle-6-Copy" fill="#E5C54E"></path>
        </g>
        <g id="Group-3" transform="translate(536.000000, 468.000000)">
            <g id="Oval-3">
                <use fill="black" fill-opacity="1" filter="url(#filter-2)" xlink:href="#path-1"></use>
                <use fill-opacity="0.769999981" fill="#000000" fill-rule="evenodd" xlink:href="#path-1"></use>
            </g>
            <g id="Oval-3-Copy">
                <use fill="black" fill-opacity="1" filter="url(#filter-4)" xlink:href="#path-3"></use>
                <use fill-opacity="0.769999981" fill="#000000" fill-rule="evenodd" xlink:href="#path-3"></use>
            </g>
        </g>
    </g>
</svg>